<mxfile host="drawio-plugin" modified="2021-06-12T15:18:32.251Z" agent="5.0 (Macintosh; Intel Mac OS X 11_4_0) AppleWebKit/537.36 (KHTML, like Gecko) Chrome/87.0.4280.141 Safari/537.36" etag="kIB8f39xMcEfYTHn2-VU" version="14.6.6" type="embed" pages="2"><diagram id="AL9YFmcq7MdUZ6bEY6yo" name="Add Word"><mxGraphModel dx="794" dy="778" grid="1" gridSize="10" guides="1" tooltips="1" connect="1" arrows="1" fold="1" page="1" pageScale="1" pageWidth="850" pageHeight="1100" math="0" shadow="0"><root><mxCell id="0"/><mxCell id="1" parent="0"/><mxCell id="igEdVgs6rclxy2gxazNf-19" value="" style="group" parent="1" vertex="1" connectable="0"><mxGeometry x="30" y="50" width="220" height="130" as="geometry"/></mxCell><mxCell id="igEdVgs6rclxy2gxazNf-14" value="" style="rounded=1;whiteSpace=wrap;html=1;" parent="igEdVgs6rclxy2gxazNf-19" vertex="1"><mxGeometry width="220" height="130" as="geometry"/></mxCell><mxCell id="igEdVgs6rclxy2gxazNf-1" value="" style="shape=table;html=1;whiteSpace=wrap;startSize=0;container=1;collapsible=0;childLayout=tableLayout;" parent="igEdVgs6rclxy2gxazNf-19" vertex="1"><mxGeometry x="30" y="70" width="180" height="20" as="geometry"/></mxCell><mxCell id="igEdVgs6rclxy2gxazNf-2" value="" style="shape=partialRectangle;html=1;whiteSpace=wrap;collapsible=0;dropTarget=0;pointerEvents=0;fillColor=none;top=0;left=0;bottom=0;right=0;points=[[0,0.5],[1,0.5]];portConstraint=eastwest;" parent="igEdVgs6rclxy2gxazNf-1" vertex="1"><mxGeometry width="180" height="20" as="geometry"/></mxCell><mxCell id="igEdVgs6rclxy2gxazNf-3" value="" style="shape=partialRectangle;html=1;whiteSpace=wrap;connectable=0;fillColor=none;top=0;left=0;bottom=0;right=0;overflow=hidden;" parent="igEdVgs6rclxy2gxazNf-2" vertex="1"><mxGeometry width="60" height="20" as="geometry"/></mxCell><mxCell id="igEdVgs6rclxy2gxazNf-4" value="" style="shape=partialRectangle;html=1;whiteSpace=wrap;connectable=0;fillColor=none;top=0;left=0;bottom=0;right=0;overflow=hidden;" parent="igEdVgs6rclxy2gxazNf-2" vertex="1"><mxGeometry x="60" width="60" height="20" as="geometry"/></mxCell><mxCell id="igEdVgs6rclxy2gxazNf-5" value="" style="shape=partialRectangle;html=1;whiteSpace=wrap;connectable=0;fillColor=none;top=0;left=0;bottom=0;right=0;overflow=hidden;" parent="igEdVgs6rclxy2gxazNf-2" vertex="1"><mxGeometry x="120" width="60" height="20" as="geometry"/></mxCell><mxCell id="igEdVgs6rclxy2gxazNf-15" value="&lt;font style=&quot;font-size: 18px&quot;&gt;TrieNode&lt;/font&gt;" style="text;html=1;resizable=0;autosize=1;align=center;verticalAlign=middle;points=[];fillColor=none;strokeColor=none;rounded=0;" parent="igEdVgs6rclxy2gxazNf-19" vertex="1"><mxGeometry y="10" width="90" height="20" as="geometry"/></mxCell><mxCell id="igEdVgs6rclxy2gxazNf-16" value="" style="ellipse;whiteSpace=wrap;html=1;aspect=fixed;" parent="igEdVgs6rclxy2gxazNf-19" vertex="1"><mxGeometry x="30" y="40" width="20" height="20" as="geometry"/></mxCell><mxCell id="igEdVgs6rclxy2gxazNf-17" value="EndOfWord: Boolean" style="text;html=1;resizable=0;autosize=1;align=center;verticalAlign=middle;points=[];fillColor=none;strokeColor=none;rounded=0;" parent="igEdVgs6rclxy2gxazNf-19" vertex="1"><mxGeometry x="45" y="40" width="130" height="20" as="geometry"/></mxCell><mxCell id="igEdVgs6rclxy2gxazNf-18" value="children: Array&amp;lt;TrieNode?&amp;gt;" style="text;html=1;resizable=0;autosize=1;align=center;verticalAlign=middle;points=[];fillColor=none;strokeColor=none;rounded=0;" parent="igEdVgs6rclxy2gxazNf-19" vertex="1"><mxGeometry x="30" y="90" width="160" height="20" as="geometry"/></mxCell><mxCell id="igEdVgs6rclxy2gxazNf-21" value="" style="group" parent="1" vertex="1" connectable="0"><mxGeometry x="180" y="310" width="220" height="130" as="geometry"/></mxCell><mxCell id="igEdVgs6rclxy2gxazNf-22" value="" style="rounded=1;whiteSpace=wrap;html=1;" parent="igEdVgs6rclxy2gxazNf-21" vertex="1"><mxGeometry width="220" height="130" as="geometry"/></mxCell><mxCell id="igEdVgs6rclxy2gxazNf-23" value="" style="shape=table;html=1;whiteSpace=wrap;startSize=0;container=1;collapsible=0;childLayout=tableLayout;" parent="igEdVgs6rclxy2gxazNf-21" vertex="1"><mxGeometry x="30" y="70" width="180" height="20" as="geometry"/></mxCell><mxCell id="igEdVgs6rclxy2gxazNf-24" value="" style="shape=partialRectangle;html=1;whiteSpace=wrap;collapsible=0;dropTarget=0;pointerEvents=0;fillColor=none;top=0;left=0;bottom=0;right=0;points=[[0,0.5],[1,0.5]];portConstraint=eastwest;" parent="igEdVgs6rclxy2gxazNf-23" vertex="1"><mxGeometry width="180" height="20" as="geometry"/></mxCell><mxCell id="igEdVgs6rclxy2gxazNf-25" value="null" style="shape=partialRectangle;html=1;whiteSpace=wrap;connectable=0;fillColor=none;top=0;left=0;bottom=0;right=0;overflow=hidden;" parent="igEdVgs6rclxy2gxazNf-24" vertex="1"><mxGeometry width="60" height="20" as="geometry"/></mxCell><mxCell id="igEdVgs6rclxy2gxazNf-26" value="null" style="shape=partialRectangle;html=1;whiteSpace=wrap;connectable=0;fillColor=none;top=0;left=0;bottom=0;right=0;overflow=hidden;" parent="igEdVgs6rclxy2gxazNf-24" vertex="1"><mxGeometry x="60" width="60" height="20" as="geometry"/></mxCell><mxCell id="igEdVgs6rclxy2gxazNf-27" value="c" style="shape=partialRectangle;html=1;whiteSpace=wrap;connectable=0;fillColor=none;top=0;left=0;bottom=0;right=0;overflow=hidden;" parent="igEdVgs6rclxy2gxazNf-24" vertex="1"><mxGeometry x="120" width="60" height="20" as="geometry"/></mxCell><mxCell id="igEdVgs6rclxy2gxazNf-28" value="&lt;font style=&quot;font-size: 18px&quot;&gt;TrieNode&lt;/font&gt;" style="text;html=1;resizable=0;autosize=1;align=center;verticalAlign=middle;points=[];fillColor=none;strokeColor=none;rounded=0;" parent="igEdVgs6rclxy2gxazNf-21" vertex="1"><mxGeometry y="10" width="90" height="20" as="geometry"/></mxCell><mxCell id="igEdVgs6rclxy2gxazNf-29" value="" style="ellipse;whiteSpace=wrap;html=1;aspect=fixed;" parent="igEdVgs6rclxy2gxazNf-21" vertex="1"><mxGeometry x="30" y="40" width="20" height="20" as="geometry"/></mxCell><mxCell id="igEdVgs6rclxy2gxazNf-30" value="EndOfWord?" style="text;html=1;resizable=0;autosize=1;align=center;verticalAlign=middle;points=[];fillColor=none;strokeColor=none;rounded=0;" parent="igEdVgs6rclxy2gxazNf-21" vertex="1"><mxGeometry x="50" y="40" width="80" height="20" as="geometry"/></mxCell><mxCell id="igEdVgs6rclxy2gxazNf-31" value="children: Array&amp;lt;TrieNode?&amp;gt;" style="text;html=1;resizable=0;autosize=1;align=center;verticalAlign=middle;points=[];fillColor=none;strokeColor=none;rounded=0;" parent="igEdVgs6rclxy2gxazNf-21" vertex="1"><mxGeometry x="30" y="90" width="160" height="20" as="geometry"/></mxCell><mxCell id="igEdVgs6rclxy2gxazNf-33" value="Root" style="text;html=1;align=center;verticalAlign=middle;resizable=0;points=[];autosize=1;strokeColor=none;" parent="1" vertex="1"><mxGeometry x="170" y="250" width="40" height="20" as="geometry"/></mxCell><mxCell id="igEdVgs6rclxy2gxazNf-34" value="" style="endArrow=classic;html=1;exitX=0.725;exitY=1.05;exitDx=0;exitDy=0;exitPerimeter=0;" parent="1" source="igEdVgs6rclxy2gxazNf-33" target="igEdVgs6rclxy2gxazNf-22" edge="1"><mxGeometry width="50" height="50" relative="1" as="geometry"><mxPoint x="400" y="550" as="sourcePoint"/><mxPoint x="450" y="500" as="targetPoint"/></mxGeometry></mxCell><mxCell id="igEdVgs6rclxy2gxazNf-35" value="" style="group" parent="1" vertex="1" connectable="0"><mxGeometry x="310" y="470" width="220" height="130" as="geometry"/></mxCell><mxCell id="igEdVgs6rclxy2gxazNf-36" value="" style="rounded=1;whiteSpace=wrap;html=1;" parent="igEdVgs6rclxy2gxazNf-35" vertex="1"><mxGeometry width="220" height="130" as="geometry"/></mxCell><mxCell id="igEdVgs6rclxy2gxazNf-37" value="" style="shape=table;html=1;whiteSpace=wrap;startSize=0;container=1;collapsible=0;childLayout=tableLayout;" parent="igEdVgs6rclxy2gxazNf-35" vertex="1"><mxGeometry x="30" y="70" width="180" height="20" as="geometry"/></mxCell><mxCell id="igEdVgs6rclxy2gxazNf-38" value="" style="shape=partialRectangle;html=1;whiteSpace=wrap;collapsible=0;dropTarget=0;pointerEvents=0;fillColor=none;top=0;left=0;bottom=0;right=0;points=[[0,0.5],[1,0.5]];portConstraint=eastwest;" parent="igEdVgs6rclxy2gxazNf-37" vertex="1"><mxGeometry width="180" height="20" as="geometry"/></mxCell><mxCell id="igEdVgs6rclxy2gxazNf-39" value="a" style="shape=partialRectangle;html=1;whiteSpace=wrap;connectable=0;fillColor=none;top=0;left=0;bottom=0;right=0;overflow=hidden;" parent="igEdVgs6rclxy2gxazNf-38" vertex="1"><mxGeometry width="60" height="20" as="geometry"/></mxCell><mxCell id="igEdVgs6rclxy2gxazNf-40" value="null" style="shape=partialRectangle;html=1;whiteSpace=wrap;connectable=0;fillColor=none;top=0;left=0;bottom=0;right=0;overflow=hidden;" parent="igEdVgs6rclxy2gxazNf-38" vertex="1"><mxGeometry x="60" width="60" height="20" as="geometry"/></mxCell><mxCell id="igEdVgs6rclxy2gxazNf-41" value="null" style="shape=partialRectangle;html=1;whiteSpace=wrap;connectable=0;fillColor=none;top=0;left=0;bottom=0;right=0;overflow=hidden;" parent="igEdVgs6rclxy2gxazNf-38" vertex="1"><mxGeometry x="120" width="60" height="20" as="geometry"/></mxCell><mxCell id="igEdVgs6rclxy2gxazNf-42" value="&lt;font style=&quot;font-size: 18px&quot;&gt;TrieNode&lt;/font&gt;" style="text;html=1;resizable=0;autosize=1;align=center;verticalAlign=middle;points=[];fillColor=none;strokeColor=none;rounded=0;" parent="igEdVgs6rclxy2gxazNf-35" vertex="1"><mxGeometry y="10" width="90" height="20" as="geometry"/></mxCell><mxCell id="igEdVgs6rclxy2gxazNf-43" value="" style="ellipse;whiteSpace=wrap;html=1;aspect=fixed;" parent="igEdVgs6rclxy2gxazNf-35" vertex="1"><mxGeometry x="30" y="40" width="20" height="20" as="geometry"/></mxCell><mxCell id="igEdVgs6rclxy2gxazNf-44" value="EndOfWord?" style="text;html=1;resizable=0;autosize=1;align=center;verticalAlign=middle;points=[];fillColor=none;strokeColor=none;rounded=0;" parent="igEdVgs6rclxy2gxazNf-35" vertex="1"><mxGeometry x="50" y="40" width="80" height="20" as="geometry"/></mxCell><mxCell id="igEdVgs6rclxy2gxazNf-45" value="children: Array&amp;lt;TrieNode?&amp;gt;" style="text;html=1;resizable=0;autosize=1;align=center;verticalAlign=middle;points=[];fillColor=none;strokeColor=none;rounded=0;" parent="igEdVgs6rclxy2gxazNf-35" vertex="1"><mxGeometry x="30" y="90" width="160" height="20" as="geometry"/></mxCell><mxCell id="igEdVgs6rclxy2gxazNf-46" value="" style="endArrow=classic;html=1;exitX=0.969;exitY=-0.1;exitDx=0;exitDy=0;entryX=0.25;entryY=0;entryDx=0;entryDy=0;exitPerimeter=0;" parent="1" source="igEdVgs6rclxy2gxazNf-31" target="igEdVgs6rclxy2gxazNf-36" edge="1"><mxGeometry width="50" height="50" relative="1" as="geometry"><mxPoint x="400" y="550" as="sourcePoint"/><mxPoint x="450" y="500" as="targetPoint"/></mxGeometry></mxCell><mxCell id="igEdVgs6rclxy2gxazNf-47" value="" style="group" parent="1" vertex="1" connectable="0"><mxGeometry x="352" y="640" width="220" height="130" as="geometry"/></mxCell><mxCell id="igEdVgs6rclxy2gxazNf-48" value="" style="rounded=1;whiteSpace=wrap;html=1;" parent="igEdVgs6rclxy2gxazNf-47" vertex="1"><mxGeometry width="220" height="130" as="geometry"/></mxCell><mxCell id="igEdVgs6rclxy2gxazNf-49" value="" style="shape=table;html=1;whiteSpace=wrap;startSize=0;container=1;collapsible=0;childLayout=tableLayout;" parent="igEdVgs6rclxy2gxazNf-47" vertex="1"><mxGeometry x="30" y="70" width="180" height="20" as="geometry"/></mxCell><mxCell id="igEdVgs6rclxy2gxazNf-50" value="" style="shape=partialRectangle;html=1;whiteSpace=wrap;collapsible=0;dropTarget=0;pointerEvents=0;fillColor=none;top=0;left=0;bottom=0;right=0;points=[[0,0.5],[1,0.5]];portConstraint=eastwest;" parent="igEdVgs6rclxy2gxazNf-49" vertex="1"><mxGeometry width="180" height="20" as="geometry"/></mxCell><mxCell id="igEdVgs6rclxy2gxazNf-51" value="null" style="shape=partialRectangle;html=1;whiteSpace=wrap;connectable=0;fillColor=none;top=0;left=0;bottom=0;right=0;overflow=hidden;" parent="igEdVgs6rclxy2gxazNf-50" vertex="1"><mxGeometry width="60" height="20" as="geometry"/></mxCell><mxCell id="igEdVgs6rclxy2gxazNf-52" value="..." style="shape=partialRectangle;html=1;whiteSpace=wrap;connectable=0;fillColor=none;top=0;left=0;bottom=0;right=0;overflow=hidden;" parent="igEdVgs6rclxy2gxazNf-50" vertex="1"><mxGeometry x="60" width="60" height="20" as="geometry"/></mxCell><mxCell id="igEdVgs6rclxy2gxazNf-53" value="r" style="shape=partialRectangle;html=1;whiteSpace=wrap;connectable=0;fillColor=none;top=0;left=0;bottom=0;right=0;overflow=hidden;" parent="igEdVgs6rclxy2gxazNf-50" vertex="1"><mxGeometry x="120" width="60" height="20" as="geometry"/></mxCell><mxCell id="igEdVgs6rclxy2gxazNf-54" value="&lt;font style=&quot;font-size: 18px&quot;&gt;TrieNode&lt;/font&gt;" style="text;html=1;resizable=0;autosize=1;align=center;verticalAlign=middle;points=[];fillColor=none;strokeColor=none;rounded=0;" parent="igEdVgs6rclxy2gxazNf-47" vertex="1"><mxGeometry y="10" width="90" height="20" as="geometry"/></mxCell><mxCell id="igEdVgs6rclxy2gxazNf-55" value="" style="ellipse;whiteSpace=wrap;html=1;aspect=fixed;fillColor=#00FF00;" parent="igEdVgs6rclxy2gxazNf-47" vertex="1"><mxGeometry x="30" y="40" width="20" height="20" as="geometry"/></mxCell><mxCell id="igEdVgs6rclxy2gxazNf-56" value="EndOfWord?" style="text;html=1;resizable=0;autosize=1;align=center;verticalAlign=middle;points=[];fillColor=none;strokeColor=none;rounded=0;" parent="igEdVgs6rclxy2gxazNf-47" vertex="1"><mxGeometry x="50" y="40" width="80" height="20" as="geometry"/></mxCell><mxCell id="igEdVgs6rclxy2gxazNf-57" value="children: Array&amp;lt;TrieNode?&amp;gt;" style="text;html=1;resizable=0;autosize=1;align=center;verticalAlign=middle;points=[];fillColor=none;strokeColor=none;rounded=0;" parent="igEdVgs6rclxy2gxazNf-47" vertex="1"><mxGeometry x="30" y="90" width="160" height="20" as="geometry"/></mxCell><mxCell id="igEdVgs6rclxy2gxazNf-58" value="" style="endArrow=classic;html=1;exitX=0.181;exitY=-0.2;exitDx=0;exitDy=0;entryX=0.077;entryY=0.015;entryDx=0;entryDy=0;entryPerimeter=0;exitPerimeter=0;" parent="1" source="igEdVgs6rclxy2gxazNf-45" target="igEdVgs6rclxy2gxazNf-48" edge="1"><mxGeometry width="50" height="50" relative="1" as="geometry"><mxPoint x="330" y="400" as="sourcePoint"/><mxPoint x="375" y="480" as="targetPoint"/></mxGeometry></mxCell><mxCell id="igEdVgs6rclxy2gxazNf-59" value="" style="rounded=1;whiteSpace=wrap;html=1;fillColor=none;" parent="1" vertex="1"><mxGeometry x="170" y="250" width="40" height="20" as="geometry"/></mxCell><mxCell id="igEdVgs6rclxy2gxazNf-60" value="&lt;h1&gt;Storing Word &quot;car&quot;&lt;br&gt;&lt;/h1&gt;" style="text;html=1;strokeColor=none;fillColor=none;spacing=5;spacingTop=-20;whiteSpace=wrap;overflow=hidden;rounded=0;" parent="1" vertex="1"><mxGeometry x="165" y="210" width="250" height="40" as="geometry"/></mxCell><mxCell id="igEdVgs6rclxy2gxazNf-66" value="&lt;div&gt;index of array is&lt;/div&gt;&lt;div&gt; mapped to alphabet &lt;br&gt;&lt;/div&gt;&lt;div&gt;0 =&amp;gt; a, 25 =&amp;gt; z&lt;br&gt;&lt;/div&gt;" style="whiteSpace=wrap;html=1;shape=mxgraph.basic.roundRectCallout;dx=7.2;dy=12;size=5;boundedLbl=1;fillColor=none;" parent="1" vertex="1"><mxGeometry x="240" y="60" width="130" height="70" as="geometry"/></mxCell><mxCell id="igEdVgs6rclxy2gxazNf-68" value="&lt;div&gt;At position 'c' (index 2) attach&lt;/div&gt;&lt;div&gt;a new TrieNode.&lt;br&gt;&lt;/div&gt;" style="whiteSpace=wrap;html=1;shape=mxgraph.basic.roundRectCallout;dx=10.2;dy=17;size=5;boundedLbl=1;fillColor=none;" parent="1" vertex="1"><mxGeometry x="410" y="330" width="205" height="60" as="geometry"/></mxCell><mxCell id="igEdVgs6rclxy2gxazNf-69" value="&lt;div&gt;At position 'a' (index 0) attach&lt;/div&gt;&lt;div&gt;a new TrieNode.&lt;br&gt;&lt;/div&gt;" style="whiteSpace=wrap;html=1;shape=mxgraph.basic.roundRectCallout;dx=10.2;dy=17;size=5;boundedLbl=1;fillColor=none;" parent="1" vertex="1"><mxGeometry x="540" y="490" width="205" height="60" as="geometry"/></mxCell><mxCell id="igEdVgs6rclxy2gxazNf-70" value="&lt;div&gt;At position 'r' (index 17) attach&lt;/div&gt;&lt;div&gt;a new TrieNode.&lt;/div&gt;&lt;div&gt;Also mark endOfWord = true &lt;br&gt;&lt;/div&gt;" style="whiteSpace=wrap;html=1;shape=mxgraph.basic.roundRectCallout;dx=10.2;dy=17;size=5;boundedLbl=1;fillColor=none;" parent="1" vertex="1"><mxGeometry x="580" y="660" width="205" height="60" as="geometry"/></mxCell><mxCell id="igEdVgs6rclxy2gxazNf-82" value="" style="group" parent="1" vertex="1" connectable="0"><mxGeometry x="410" y="800" width="220" height="130" as="geometry"/></mxCell><mxCell id="igEdVgs6rclxy2gxazNf-83" value="" style="rounded=1;whiteSpace=wrap;html=1;" parent="igEdVgs6rclxy2gxazNf-82" vertex="1"><mxGeometry width="220" height="130" as="geometry"/></mxCell><mxCell id="igEdVgs6rclxy2gxazNf-84" value="" style="shape=table;html=1;whiteSpace=wrap;startSize=0;container=1;collapsible=0;childLayout=tableLayout;" parent="igEdVgs6rclxy2gxazNf-82" vertex="1"><mxGeometry x="30" y="70" width="180" height="20" as="geometry"/></mxCell><mxCell id="igEdVgs6rclxy2gxazNf-85" value="" style="shape=partialRectangle;html=1;whiteSpace=wrap;collapsible=0;dropTarget=0;pointerEvents=0;fillColor=none;top=0;left=0;bottom=0;right=0;points=[[0,0.5],[1,0.5]];portConstraint=eastwest;" parent="igEdVgs6rclxy2gxazNf-84" vertex="1"><mxGeometry width="180" height="20" as="geometry"/></mxCell><mxCell id="igEdVgs6rclxy2gxazNf-86" value="null" style="shape=partialRectangle;html=1;whiteSpace=wrap;connectable=0;fillColor=none;top=0;left=0;bottom=0;right=0;overflow=hidden;" parent="igEdVgs6rclxy2gxazNf-85" vertex="1"><mxGeometry width="60" height="20" as="geometry"/></mxCell><mxCell id="igEdVgs6rclxy2gxazNf-87" value="null" style="shape=partialRectangle;html=1;whiteSpace=wrap;connectable=0;fillColor=none;top=0;left=0;bottom=0;right=0;overflow=hidden;" parent="igEdVgs6rclxy2gxazNf-85" vertex="1"><mxGeometry x="60" width="60" height="20" as="geometry"/></mxCell><mxCell id="igEdVgs6rclxy2gxazNf-88" value="null" style="shape=partialRectangle;html=1;whiteSpace=wrap;connectable=0;fillColor=none;top=0;left=0;bottom=0;right=0;overflow=hidden;" parent="igEdVgs6rclxy2gxazNf-85" vertex="1"><mxGeometry x="120" width="60" height="20" as="geometry"/></mxCell><mxCell id="igEdVgs6rclxy2gxazNf-89" value="&lt;font style=&quot;font-size: 18px&quot;&gt;TrieNode&lt;/font&gt;" style="text;html=1;resizable=0;autosize=1;align=center;verticalAlign=middle;points=[];fillColor=none;strokeColor=none;rounded=0;" parent="igEdVgs6rclxy2gxazNf-82" vertex="1"><mxGeometry y="10" width="90" height="20" as="geometry"/></mxCell><mxCell id="igEdVgs6rclxy2gxazNf-90" value="" style="ellipse;whiteSpace=wrap;html=1;aspect=fixed;" parent="igEdVgs6rclxy2gxazNf-82" vertex="1"><mxGeometry x="30" y="40" width="20" height="20" as="geometry"/></mxCell><mxCell id="igEdVgs6rclxy2gxazNf-91" value="EndOfWord?" style="text;html=1;resizable=0;autosize=1;align=center;verticalAlign=middle;points=[];fillColor=none;strokeColor=none;rounded=0;" parent="igEdVgs6rclxy2gxazNf-82" vertex="1"><mxGeometry x="50" y="40" width="80" height="20" as="geometry"/></mxCell><mxCell id="igEdVgs6rclxy2gxazNf-92" value="children: Array&amp;lt;TrieNode?&amp;gt;" style="text;html=1;resizable=0;autosize=1;align=center;verticalAlign=middle;points=[];fillColor=none;strokeColor=none;rounded=0;" parent="igEdVgs6rclxy2gxazNf-82" vertex="1"><mxGeometry x="30" y="90" width="160" height="20" as="geometry"/></mxCell><mxCell id="igEdVgs6rclxy2gxazNf-93" value="" style="endArrow=classic;html=1;entryX=0.614;entryY=0;entryDx=0;entryDy=0;exitX=1.019;exitY=-0.15;exitDx=0;exitDy=0;exitPerimeter=0;entryPerimeter=0;" parent="1" source="igEdVgs6rclxy2gxazNf-57" target="igEdVgs6rclxy2gxazNf-83" edge="1"><mxGeometry width="50" height="50" relative="1" as="geometry"><mxPoint x="378.96000000000004" y="566" as="sourcePoint"/><mxPoint x="378.94000000000005" y="651.95" as="targetPoint"/></mxGeometry></mxCell><mxCell id="igEdVgs6rclxy2gxazNf-94" value="This TrieNode is 'empty'.&amp;nbsp; Could be option for future perf. improvement to not create this extra level." style="whiteSpace=wrap;html=1;shape=mxgraph.basic.roundRectCallout;dx=10.2;dy=17;size=5;boundedLbl=1;fillColor=none;" parent="1" vertex="1"><mxGeometry x="640" y="810" width="205" height="60" as="geometry"/></mxCell><mxCell id="igEdVgs6rclxy2gxazNf-95" value="&lt;h1&gt;The structure of TrieNode&lt;br&gt;&lt;/h1&gt;" style="text;html=1;strokeColor=none;fillColor=none;spacing=5;spacingTop=-20;whiteSpace=wrap;overflow=hidden;rounded=0;" parent="1" vertex="1"><mxGeometry x="30" y="10" width="320" height="40" as="geometry"/></mxCell></root></mxGraphModel></diagram><diagram name="Contains Word?" id="TW-4HsKgm1wwIeL_lfh0"><mxGraphModel dx="675" dy="391" grid="1" gridSize="10" guides="1" tooltips="1" connect="1" arrows="1" fold="1" page="1" pageScale="1" pageWidth="850" pageHeight="1100" math="0" shadow="0"><root><mxCell id="gCkLyTlxg25h5jRgPjyt-0"/><mxCell id="gCkLyTlxg25h5jRgPjyt-1" parent="gCkLyTlxg25h5jRgPjyt-0"/><mxCell id="gCkLyTlxg25h5jRgPjyt-2" value="" style="group" vertex="1" connectable="0" parent="gCkLyTlxg25h5jRgPjyt-1"><mxGeometry x="30" y="50" width="220" height="130" as="geometry"/></mxCell><mxCell id="gCkLyTlxg25h5jRgPjyt-3" value="" style="rounded=1;whiteSpace=wrap;html=1;" vertex="1" parent="gCkLyTlxg25h5jRgPjyt-2"><mxGeometry width="220" height="130" as="geometry"/></mxCell><mxCell id="gCkLyTlxg25h5jRgPjyt-4" value="" style="shape=table;html=1;whiteSpace=wrap;startSize=0;container=1;collapsible=0;childLayout=tableLayout;" vertex="1" parent="gCkLyTlxg25h5jRgPjyt-2"><mxGeometry x="30" y="70" width="180" height="20" as="geometry"/></mxCell><mxCell id="gCkLyTlxg25h5jRgPjyt-5" value="" style="shape=partialRectangle;html=1;whiteSpace=wrap;collapsible=0;dropTarget=0;pointerEvents=0;fillColor=none;top=0;left=0;bottom=0;right=0;points=[[0,0.5],[1,0.5]];portConstraint=eastwest;" vertex="1" parent="gCkLyTlxg25h5jRgPjyt-4"><mxGeometry width="180" height="20" as="geometry"/></mxCell><mxCell id="gCkLyTlxg25h5jRgPjyt-6" value="" style="shape=partialRectangle;html=1;whiteSpace=wrap;connectable=0;fillColor=none;top=0;left=0;bottom=0;right=0;overflow=hidden;" vertex="1" parent="gCkLyTlxg25h5jRgPjyt-5"><mxGeometry width="60" height="20" as="geometry"/></mxCell><mxCell id="gCkLyTlxg25h5jRgPjyt-7" value="" style="shape=partialRectangle;html=1;whiteSpace=wrap;connectable=0;fillColor=none;top=0;left=0;bottom=0;right=0;overflow=hidden;" vertex="1" parent="gCkLyTlxg25h5jRgPjyt-5"><mxGeometry x="60" width="60" height="20" as="geometry"/></mxCell><mxCell id="gCkLyTlxg25h5jRgPjyt-8" value="" style="shape=partialRectangle;html=1;whiteSpace=wrap;connectable=0;fillColor=none;top=0;left=0;bottom=0;right=0;overflow=hidden;" vertex="1" parent="gCkLyTlxg25h5jRgPjyt-5"><mxGeometry x="120" width="60" height="20" as="geometry"/></mxCell><mxCell id="gCkLyTlxg25h5jRgPjyt-9" value="&lt;font style=&quot;font-size: 18px&quot;&gt;TrieNode&lt;/font&gt;" style="text;html=1;resizable=0;autosize=1;align=center;verticalAlign=middle;points=[];fillColor=none;strokeColor=none;rounded=0;" vertex="1" parent="gCkLyTlxg25h5jRgPjyt-2"><mxGeometry y="10" width="90" height="20" as="geometry"/></mxCell><mxCell id="gCkLyTlxg25h5jRgPjyt-10" value="" style="ellipse;whiteSpace=wrap;html=1;aspect=fixed;" vertex="1" parent="gCkLyTlxg25h5jRgPjyt-2"><mxGeometry x="30" y="40" width="20" height="20" as="geometry"/></mxCell><mxCell id="gCkLyTlxg25h5jRgPjyt-11" value="EndOfWord: Boolean" style="text;html=1;resizable=0;autosize=1;align=center;verticalAlign=middle;points=[];fillColor=none;strokeColor=none;rounded=0;" vertex="1" parent="gCkLyTlxg25h5jRgPjyt-2"><mxGeometry x="45" y="40" width="130" height="20" as="geometry"/></mxCell><mxCell id="gCkLyTlxg25h5jRgPjyt-12" value="children: Array&amp;lt;TrieNode?&amp;gt;" style="text;html=1;resizable=0;autosize=1;align=center;verticalAlign=middle;points=[];fillColor=none;strokeColor=none;rounded=0;" vertex="1" parent="gCkLyTlxg25h5jRgPjyt-2"><mxGeometry x="30" y="90" width="160" height="20" as="geometry"/></mxCell><mxCell id="gCkLyTlxg25h5jRgPjyt-13" value="" style="group" vertex="1" connectable="0" parent="gCkLyTlxg25h5jRgPjyt-1"><mxGeometry x="180" y="310" width="220" height="130" as="geometry"/></mxCell><mxCell id="gCkLyTlxg25h5jRgPjyt-14" value="" style="rounded=1;whiteSpace=wrap;html=1;" vertex="1" parent="gCkLyTlxg25h5jRgPjyt-13"><mxGeometry width="220" height="130" as="geometry"/></mxCell><mxCell id="gCkLyTlxg25h5jRgPjyt-15" value="" style="shape=table;html=1;whiteSpace=wrap;startSize=0;container=1;collapsible=0;childLayout=tableLayout;" vertex="1" parent="gCkLyTlxg25h5jRgPjyt-13"><mxGeometry x="30" y="70" width="180" height="20" as="geometry"/></mxCell><mxCell id="gCkLyTlxg25h5jRgPjyt-16" value="" style="shape=partialRectangle;html=1;whiteSpace=wrap;collapsible=0;dropTarget=0;pointerEvents=0;fillColor=none;top=0;left=0;bottom=0;right=0;points=[[0,0.5],[1,0.5]];portConstraint=eastwest;" vertex="1" parent="gCkLyTlxg25h5jRgPjyt-15"><mxGeometry width="180" height="20" as="geometry"/></mxCell><mxCell id="gCkLyTlxg25h5jRgPjyt-17" value="null" style="shape=partialRectangle;html=1;whiteSpace=wrap;connectable=0;fillColor=none;top=0;left=0;bottom=0;right=0;overflow=hidden;" vertex="1" parent="gCkLyTlxg25h5jRgPjyt-16"><mxGeometry width="60" height="20" as="geometry"/></mxCell><mxCell id="gCkLyTlxg25h5jRgPjyt-18" value="null" style="shape=partialRectangle;html=1;whiteSpace=wrap;connectable=0;fillColor=none;top=0;left=0;bottom=0;right=0;overflow=hidden;" vertex="1" parent="gCkLyTlxg25h5jRgPjyt-16"><mxGeometry x="60" width="60" height="20" as="geometry"/></mxCell><mxCell id="gCkLyTlxg25h5jRgPjyt-19" value="c" style="shape=partialRectangle;html=1;whiteSpace=wrap;connectable=0;fillColor=none;top=0;left=0;bottom=0;right=0;overflow=hidden;" vertex="1" parent="gCkLyTlxg25h5jRgPjyt-16"><mxGeometry x="120" width="60" height="20" as="geometry"/></mxCell><mxCell id="gCkLyTlxg25h5jRgPjyt-20" value="&lt;font style=&quot;font-size: 18px&quot;&gt;TrieNode&lt;/font&gt;" style="text;html=1;resizable=0;autosize=1;align=center;verticalAlign=middle;points=[];fillColor=none;strokeColor=none;rounded=0;" vertex="1" parent="gCkLyTlxg25h5jRgPjyt-13"><mxGeometry y="10" width="90" height="20" as="geometry"/></mxCell><mxCell id="gCkLyTlxg25h5jRgPjyt-21" value="" style="ellipse;whiteSpace=wrap;html=1;aspect=fixed;" vertex="1" parent="gCkLyTlxg25h5jRgPjyt-13"><mxGeometry x="30" y="40" width="20" height="20" as="geometry"/></mxCell><mxCell id="gCkLyTlxg25h5jRgPjyt-22" value="EndOfWord?" style="text;html=1;resizable=0;autosize=1;align=center;verticalAlign=middle;points=[];fillColor=none;strokeColor=none;rounded=0;" vertex="1" parent="gCkLyTlxg25h5jRgPjyt-13"><mxGeometry x="50" y="40" width="80" height="20" as="geometry"/></mxCell><mxCell id="gCkLyTlxg25h5jRgPjyt-23" value="children: Array&amp;lt;TrieNode?&amp;gt;" style="text;html=1;resizable=0;autosize=1;align=center;verticalAlign=middle;points=[];fillColor=none;strokeColor=none;rounded=0;" vertex="1" parent="gCkLyTlxg25h5jRgPjyt-13"><mxGeometry x="30" y="90" width="160" height="20" as="geometry"/></mxCell><mxCell id="gCkLyTlxg25h5jRgPjyt-24" value="Root" style="text;html=1;align=center;verticalAlign=middle;resizable=0;points=[];autosize=1;strokeColor=none;" vertex="1" parent="gCkLyTlxg25h5jRgPjyt-1"><mxGeometry x="170" y="250" width="40" height="20" as="geometry"/></mxCell><mxCell id="gCkLyTlxg25h5jRgPjyt-25" value="" style="endArrow=classic;html=1;exitX=0.725;exitY=1.05;exitDx=0;exitDy=0;exitPerimeter=0;" edge="1" parent="gCkLyTlxg25h5jRgPjyt-1" source="gCkLyTlxg25h5jRgPjyt-24" target="gCkLyTlxg25h5jRgPjyt-14"><mxGeometry width="50" height="50" relative="1" as="geometry"><mxPoint x="400" y="550" as="sourcePoint"/><mxPoint x="450" y="500" as="targetPoint"/></mxGeometry></mxCell><mxCell id="gCkLyTlxg25h5jRgPjyt-26" value="" style="group" vertex="1" connectable="0" parent="gCkLyTlxg25h5jRgPjyt-1"><mxGeometry x="310" y="470" width="220" height="130" as="geometry"/></mxCell><mxCell id="gCkLyTlxg25h5jRgPjyt-27" value="" style="rounded=1;whiteSpace=wrap;html=1;" vertex="1" parent="gCkLyTlxg25h5jRgPjyt-26"><mxGeometry width="220" height="130" as="geometry"/></mxCell><mxCell id="gCkLyTlxg25h5jRgPjyt-28" value="" style="shape=table;html=1;whiteSpace=wrap;startSize=0;container=1;collapsible=0;childLayout=tableLayout;" vertex="1" parent="gCkLyTlxg25h5jRgPjyt-26"><mxGeometry x="30" y="70" width="180" height="20" as="geometry"/></mxCell><mxCell id="gCkLyTlxg25h5jRgPjyt-29" value="" style="shape=partialRectangle;html=1;whiteSpace=wrap;collapsible=0;dropTarget=0;pointerEvents=0;fillColor=none;top=0;left=0;bottom=0;right=0;points=[[0,0.5],[1,0.5]];portConstraint=eastwest;" vertex="1" parent="gCkLyTlxg25h5jRgPjyt-28"><mxGeometry width="180" height="20" as="geometry"/></mxCell><mxCell id="gCkLyTlxg25h5jRgPjyt-30" value="a" style="shape=partialRectangle;html=1;whiteSpace=wrap;connectable=0;fillColor=none;top=0;left=0;bottom=0;right=0;overflow=hidden;" vertex="1" parent="gCkLyTlxg25h5jRgPjyt-29"><mxGeometry width="60" height="20" as="geometry"/></mxCell><mxCell id="gCkLyTlxg25h5jRgPjyt-31" value="null" style="shape=partialRectangle;html=1;whiteSpace=wrap;connectable=0;fillColor=none;top=0;left=0;bottom=0;right=0;overflow=hidden;" vertex="1" parent="gCkLyTlxg25h5jRgPjyt-29"><mxGeometry x="60" width="60" height="20" as="geometry"/></mxCell><mxCell id="gCkLyTlxg25h5jRgPjyt-32" value="null" style="shape=partialRectangle;html=1;whiteSpace=wrap;connectable=0;fillColor=none;top=0;left=0;bottom=0;right=0;overflow=hidden;" vertex="1" parent="gCkLyTlxg25h5jRgPjyt-29"><mxGeometry x="120" width="60" height="20" as="geometry"/></mxCell><mxCell id="gCkLyTlxg25h5jRgPjyt-33" value="&lt;font style=&quot;font-size: 18px&quot;&gt;TrieNode&lt;/font&gt;" style="text;html=1;resizable=0;autosize=1;align=center;verticalAlign=middle;points=[];fillColor=none;strokeColor=none;rounded=0;" vertex="1" parent="gCkLyTlxg25h5jRgPjyt-26"><mxGeometry y="10" width="90" height="20" as="geometry"/></mxCell><mxCell id="gCkLyTlxg25h5jRgPjyt-34" value="" style="ellipse;whiteSpace=wrap;html=1;aspect=fixed;" vertex="1" parent="gCkLyTlxg25h5jRgPjyt-26"><mxGeometry x="30" y="40" width="20" height="20" as="geometry"/></mxCell><mxCell id="gCkLyTlxg25h5jRgPjyt-35" value="EndOfWord?" style="text;html=1;resizable=0;autosize=1;align=center;verticalAlign=middle;points=[];fillColor=none;strokeColor=none;rounded=0;" vertex="1" parent="gCkLyTlxg25h5jRgPjyt-26"><mxGeometry x="50" y="40" width="80" height="20" as="geometry"/></mxCell><mxCell id="gCkLyTlxg25h5jRgPjyt-36" value="children: Array&amp;lt;TrieNode?&amp;gt;" style="text;html=1;resizable=0;autosize=1;align=center;verticalAlign=middle;points=[];fillColor=none;strokeColor=none;rounded=0;" vertex="1" parent="gCkLyTlxg25h5jRgPjyt-26"><mxGeometry x="30" y="90" width="160" height="20" as="geometry"/></mxCell><mxCell id="gCkLyTlxg25h5jRgPjyt-37" value="" style="endArrow=classic;html=1;exitX=0.969;exitY=-0.1;exitDx=0;exitDy=0;entryX=0.25;entryY=0;entryDx=0;entryDy=0;exitPerimeter=0;" edge="1" parent="gCkLyTlxg25h5jRgPjyt-1" source="gCkLyTlxg25h5jRgPjyt-23" target="gCkLyTlxg25h5jRgPjyt-27"><mxGeometry width="50" height="50" relative="1" as="geometry"><mxPoint x="400" y="550" as="sourcePoint"/><mxPoint x="450" y="500" as="targetPoint"/></mxGeometry></mxCell><mxCell id="gCkLyTlxg25h5jRgPjyt-38" value="" style="group" vertex="1" connectable="0" parent="gCkLyTlxg25h5jRgPjyt-1"><mxGeometry x="352" y="640" width="220" height="130" as="geometry"/></mxCell><mxCell id="gCkLyTlxg25h5jRgPjyt-39" value="" style="rounded=1;whiteSpace=wrap;html=1;" vertex="1" parent="gCkLyTlxg25h5jRgPjyt-38"><mxGeometry width="220" height="130" as="geometry"/></mxCell><mxCell id="gCkLyTlxg25h5jRgPjyt-40" value="" style="shape=table;html=1;whiteSpace=wrap;startSize=0;container=1;collapsible=0;childLayout=tableLayout;" vertex="1" parent="gCkLyTlxg25h5jRgPjyt-38"><mxGeometry x="30" y="70" width="180" height="20" as="geometry"/></mxCell><mxCell id="gCkLyTlxg25h5jRgPjyt-41" value="" style="shape=partialRectangle;html=1;whiteSpace=wrap;collapsible=0;dropTarget=0;pointerEvents=0;fillColor=none;top=0;left=0;bottom=0;right=0;points=[[0,0.5],[1,0.5]];portConstraint=eastwest;" vertex="1" parent="gCkLyTlxg25h5jRgPjyt-40"><mxGeometry width="180" height="20" as="geometry"/></mxCell><mxCell id="gCkLyTlxg25h5jRgPjyt-42" value="null" style="shape=partialRectangle;html=1;whiteSpace=wrap;connectable=0;fillColor=none;top=0;left=0;bottom=0;right=0;overflow=hidden;" vertex="1" parent="gCkLyTlxg25h5jRgPjyt-41"><mxGeometry width="60" height="20" as="geometry"/></mxCell><mxCell id="gCkLyTlxg25h5jRgPjyt-43" value="..." style="shape=partialRectangle;html=1;whiteSpace=wrap;connectable=0;fillColor=none;top=0;left=0;bottom=0;right=0;overflow=hidden;" vertex="1" parent="gCkLyTlxg25h5jRgPjyt-41"><mxGeometry x="60" width="60" height="20" as="geometry"/></mxCell><mxCell id="gCkLyTlxg25h5jRgPjyt-44" value="r" style="shape=partialRectangle;html=1;whiteSpace=wrap;connectable=0;fillColor=none;top=0;left=0;bottom=0;right=0;overflow=hidden;" vertex="1" parent="gCkLyTlxg25h5jRgPjyt-41"><mxGeometry x="120" width="60" height="20" as="geometry"/></mxCell><mxCell id="gCkLyTlxg25h5jRgPjyt-45" value="&lt;font style=&quot;font-size: 18px&quot;&gt;TrieNode&lt;/font&gt;" style="text;html=1;resizable=0;autosize=1;align=center;verticalAlign=middle;points=[];fillColor=none;strokeColor=none;rounded=0;" vertex="1" parent="gCkLyTlxg25h5jRgPjyt-38"><mxGeometry y="10" width="90" height="20" as="geometry"/></mxCell><mxCell id="gCkLyTlxg25h5jRgPjyt-46" value="" style="ellipse;whiteSpace=wrap;html=1;aspect=fixed;fillColor=#00FF00;" vertex="1" parent="gCkLyTlxg25h5jRgPjyt-38"><mxGeometry x="30" y="40" width="20" height="20" as="geometry"/></mxCell><mxCell id="gCkLyTlxg25h5jRgPjyt-47" value="EndOfWord?" style="text;html=1;resizable=0;autosize=1;align=center;verticalAlign=middle;points=[];fillColor=none;strokeColor=none;rounded=0;" vertex="1" parent="gCkLyTlxg25h5jRgPjyt-38"><mxGeometry x="50" y="40" width="80" height="20" as="geometry"/></mxCell><mxCell id="gCkLyTlxg25h5jRgPjyt-48" value="children: Array&amp;lt;TrieNode?&amp;gt;" style="text;html=1;resizable=0;autosize=1;align=center;verticalAlign=middle;points=[];fillColor=none;strokeColor=none;rounded=0;" vertex="1" parent="gCkLyTlxg25h5jRgPjyt-38"><mxGeometry x="30" y="90" width="160" height="20" as="geometry"/></mxCell><mxCell id="gCkLyTlxg25h5jRgPjyt-49" value="" style="endArrow=classic;html=1;exitX=0.181;exitY=-0.2;exitDx=0;exitDy=0;entryX=0.077;entryY=0.015;entryDx=0;entryDy=0;entryPerimeter=0;exitPerimeter=0;" edge="1" parent="gCkLyTlxg25h5jRgPjyt-1" source="gCkLyTlxg25h5jRgPjyt-36" target="gCkLyTlxg25h5jRgPjyt-39"><mxGeometry width="50" height="50" relative="1" as="geometry"><mxPoint x="330" y="400" as="sourcePoint"/><mxPoint x="375" y="480" as="targetPoint"/></mxGeometry></mxCell><mxCell id="gCkLyTlxg25h5jRgPjyt-50" value="" style="rounded=1;whiteSpace=wrap;html=1;fillColor=none;" vertex="1" parent="gCkLyTlxg25h5jRgPjyt-1"><mxGeometry x="170" y="250" width="40" height="20" as="geometry"/></mxCell><mxCell id="gCkLyTlxg25h5jRgPjyt-51" value="&lt;h1&gt;Finding Word &quot;car&quot;&lt;br&gt;&lt;/h1&gt;" style="text;html=1;strokeColor=none;fillColor=none;spacing=5;spacingTop=-20;whiteSpace=wrap;overflow=hidden;rounded=0;" vertex="1" parent="gCkLyTlxg25h5jRgPjyt-1"><mxGeometry x="165" y="210" width="250" height="40" as="geometry"/></mxCell><mxCell id="gCkLyTlxg25h5jRgPjyt-52" value="&lt;div&gt;index of array is&lt;/div&gt;&lt;div&gt; mapped to alphabet &lt;br&gt;&lt;/div&gt;&lt;div&gt;0 =&amp;gt; a, 25 =&amp;gt; z&lt;br&gt;&lt;/div&gt;" style="whiteSpace=wrap;html=1;shape=mxgraph.basic.roundRectCallout;dx=7.2;dy=12;size=5;boundedLbl=1;fillColor=none;" vertex="1" parent="gCkLyTlxg25h5jRgPjyt-1"><mxGeometry x="240" y="60" width="130" height="70" as="geometry"/></mxCell><mxCell id="gCkLyTlxg25h5jRgPjyt-53" value="&lt;div&gt;At position 'c' (index 2) is a TrieNode?&lt;/div&gt;&lt;div&gt;YES: recursive with node at 'c' and word with first letter dropped.&lt;/div&gt;" style="whiteSpace=wrap;html=1;shape=mxgraph.basic.roundRectCallout;dx=10.2;dy=17;size=5;boundedLbl=1;fillColor=none;" vertex="1" parent="gCkLyTlxg25h5jRgPjyt-1"><mxGeometry x="410" y="300" width="205" height="80" as="geometry"/></mxCell><mxCell id="gCkLyTlxg25h5jRgPjyt-54" value="&lt;div&gt;'next' trieNode and word is now 'ar'&lt;/div&gt;" style="whiteSpace=wrap;html=1;shape=mxgraph.basic.roundRectCallout;dx=10.2;dy=17;size=5;boundedLbl=1;fillColor=none;" vertex="1" parent="gCkLyTlxg25h5jRgPjyt-1"><mxGeometry x="380" y="420" width="205" height="50" as="geometry"/></mxCell><mxCell id="gCkLyTlxg25h5jRgPjyt-55" value="&lt;div&gt;'next' trieNode and word is now 'r'&lt;br&gt;&lt;/div&gt;" style="whiteSpace=wrap;html=1;shape=mxgraph.basic.roundRectCallout;dx=10.2;dy=17;size=5;boundedLbl=1;fillColor=none;" vertex="1" parent="gCkLyTlxg25h5jRgPjyt-1"><mxGeometry x="390" y="590" width="205" height="50" as="geometry"/></mxCell><mxCell id="gCkLyTlxg25h5jRgPjyt-56" value="" style="group" vertex="1" connectable="0" parent="gCkLyTlxg25h5jRgPjyt-1"><mxGeometry x="410" y="800" width="220" height="130" as="geometry"/></mxCell><mxCell id="gCkLyTlxg25h5jRgPjyt-57" value="" style="rounded=1;whiteSpace=wrap;html=1;" vertex="1" parent="gCkLyTlxg25h5jRgPjyt-56"><mxGeometry width="220" height="130" as="geometry"/></mxCell><mxCell id="gCkLyTlxg25h5jRgPjyt-58" value="" style="shape=table;html=1;whiteSpace=wrap;startSize=0;container=1;collapsible=0;childLayout=tableLayout;" vertex="1" parent="gCkLyTlxg25h5jRgPjyt-56"><mxGeometry x="30" y="70" width="180" height="20" as="geometry"/></mxCell><mxCell id="gCkLyTlxg25h5jRgPjyt-59" value="" style="shape=partialRectangle;html=1;whiteSpace=wrap;collapsible=0;dropTarget=0;pointerEvents=0;fillColor=none;top=0;left=0;bottom=0;right=0;points=[[0,0.5],[1,0.5]];portConstraint=eastwest;" vertex="1" parent="gCkLyTlxg25h5jRgPjyt-58"><mxGeometry width="180" height="20" as="geometry"/></mxCell><mxCell id="gCkLyTlxg25h5jRgPjyt-60" value="null" style="shape=partialRectangle;html=1;whiteSpace=wrap;connectable=0;fillColor=none;top=0;left=0;bottom=0;right=0;overflow=hidden;" vertex="1" parent="gCkLyTlxg25h5jRgPjyt-59"><mxGeometry width="60" height="20" as="geometry"/></mxCell><mxCell id="gCkLyTlxg25h5jRgPjyt-61" value="null" style="shape=partialRectangle;html=1;whiteSpace=wrap;connectable=0;fillColor=none;top=0;left=0;bottom=0;right=0;overflow=hidden;" vertex="1" parent="gCkLyTlxg25h5jRgPjyt-59"><mxGeometry x="60" width="60" height="20" as="geometry"/></mxCell><mxCell id="gCkLyTlxg25h5jRgPjyt-62" value="null" style="shape=partialRectangle;html=1;whiteSpace=wrap;connectable=0;fillColor=none;top=0;left=0;bottom=0;right=0;overflow=hidden;" vertex="1" parent="gCkLyTlxg25h5jRgPjyt-59"><mxGeometry x="120" width="60" height="20" as="geometry"/></mxCell><mxCell id="gCkLyTlxg25h5jRgPjyt-63" value="&lt;font style=&quot;font-size: 18px&quot;&gt;TrieNode&lt;/font&gt;" style="text;html=1;resizable=0;autosize=1;align=center;verticalAlign=middle;points=[];fillColor=none;strokeColor=none;rounded=0;" vertex="1" parent="gCkLyTlxg25h5jRgPjyt-56"><mxGeometry y="10" width="90" height="20" as="geometry"/></mxCell><mxCell id="gCkLyTlxg25h5jRgPjyt-64" value="" style="ellipse;whiteSpace=wrap;html=1;aspect=fixed;" vertex="1" parent="gCkLyTlxg25h5jRgPjyt-56"><mxGeometry x="30" y="40" width="20" height="20" as="geometry"/></mxCell><mxCell id="gCkLyTlxg25h5jRgPjyt-65" value="EndOfWord?" style="text;html=1;resizable=0;autosize=1;align=center;verticalAlign=middle;points=[];fillColor=none;strokeColor=none;rounded=0;" vertex="1" parent="gCkLyTlxg25h5jRgPjyt-56"><mxGeometry x="50" y="40" width="80" height="20" as="geometry"/></mxCell><mxCell id="gCkLyTlxg25h5jRgPjyt-66" value="children: Array&amp;lt;TrieNode?&amp;gt;" style="text;html=1;resizable=0;autosize=1;align=center;verticalAlign=middle;points=[];fillColor=none;strokeColor=none;rounded=0;" vertex="1" parent="gCkLyTlxg25h5jRgPjyt-56"><mxGeometry x="30" y="90" width="160" height="20" as="geometry"/></mxCell><mxCell id="gCkLyTlxg25h5jRgPjyt-67" value="" style="endArrow=classic;html=1;entryX=0.614;entryY=0;entryDx=0;entryDy=0;exitX=1.019;exitY=-0.15;exitDx=0;exitDy=0;exitPerimeter=0;entryPerimeter=0;" edge="1" parent="gCkLyTlxg25h5jRgPjyt-1" source="gCkLyTlxg25h5jRgPjyt-48" target="gCkLyTlxg25h5jRgPjyt-57"><mxGeometry width="50" height="50" relative="1" as="geometry"><mxPoint x="378.96000000000004" y="566" as="sourcePoint"/><mxPoint x="378.94000000000005" y="651.95" as="targetPoint"/></mxGeometry></mxCell><mxCell id="gCkLyTlxg25h5jRgPjyt-68" value="&lt;span style=&quot;color: rgb(240 , 240 , 240) ; font-family: &amp;#34;helvetica&amp;#34; ; font-size: 12px ; font-style: normal ; font-weight: 400 ; letter-spacing: normal ; text-align: center ; text-indent: 0px ; text-transform: none ; word-spacing: 0px ; background-color: rgb(42 , 42 , 42) ; display: inline ; float: none&quot;&gt;next TrieNode and word is now '' (empty).&lt;br&gt;WORD WAS FOUND&lt;br&gt;Stop recursive when word is empty and current TrieNode is marked as endOfWord.&lt;/span&gt;" style="whiteSpace=wrap;html=1;shape=mxgraph.basic.roundRectCallout;dx=10.2;dy=17;size=5;boundedLbl=1;fillColor=none;" vertex="1" parent="gCkLyTlxg25h5jRgPjyt-1"><mxGeometry x="560" y="710" width="240" height="80" as="geometry"/></mxCell><mxCell id="gCkLyTlxg25h5jRgPjyt-69" value="&lt;h1&gt;The structure of TrieNode&lt;br&gt;&lt;/h1&gt;" style="text;html=1;strokeColor=none;fillColor=none;spacing=5;spacingTop=-20;whiteSpace=wrap;overflow=hidden;rounded=0;" vertex="1" parent="gCkLyTlxg25h5jRgPjyt-1"><mxGeometry x="30" y="10" width="320" height="40" as="geometry"/></mxCell><mxCell id="gCkLyTlxg25h5jRgPjyt-70" value="" style="html=1;shadow=0;dashed=0;align=center;verticalAlign=middle;shape=mxgraph.arrows2.uTurnArrow;dy=11;arrowHead=43;dx2=25;flipV=0;flipH=1;" vertex="1" parent="gCkLyTlxg25h5jRgPjyt-1"><mxGeometry x="600" y="320" width="87.5" height="90" as="geometry"/></mxCell></root></mxGraphModel></diagram></mxfile>